# xmcd CD database file
#
# Track frame offsets:
#	150
#	12507
#	22362
#	34080
#	48222
#	60325
#	71142
#	82002
#	94590
#	104565
#	118282
#	128872
#	139020
#	149142
#	160342
#	169684
#	180662
#	191155
#	206737
#	219492
#
# Disc length: 3073 seconds
#
# Revision: 3
# Processed by: cddbd v1.5.1PL0 Copyright (c) Steve Scherf et al.
# Submitted via: CDex 1.51
#
DISCID=360bff14
DTITLE=Patsy Cline - The Best of Patsy Cline
DYEAR=1900
DGENRE=
TTITLE0=Crazy
TTITLE1=Heartaches
TTITLE2=Sweet dreams
TTITLE3=She's got you
TTITLE4=He called me baby
TTITLE5=Love letters in the sand
TTITLE6=Crazy arms
TTITLE7=Bill Bailey won't you please come home
TTITLE8=Have you ever been lonely
TTITLE9=That's my desire
TTITLE10=Your cheatin' heart
TTITLE11=That's how a heartache begins
TTITLE12=I love you so much it hurts
TTITLE13=Half as much
TTITLE14=Back in baby's arms
TTITLE15=South of the border (Down Mexico Way)
TTITLE16=San Antonio rose
TTITLE17=Why can't he be you
TTITLE18=I fall to pieces
TTITLE19=Leavin' on your mind
EXTD=
EXTT0=
EXTT1=
EXTT2=
EXTT3=
EXTT4=
EXTT5=
EXTT6=
EXTT7=
EXTT8=
EXTT9=
EXTT10=
EXTT11=
EXTT12=
EXTT13=
EXTT14=
EXTT15=
EXTT16=
EXTT17=
EXTT18=
EXTT19=
PLAYORDER=
